<svg width="61" height="62" viewBox="0 0 61 62" fill="none" xmlns="http://www.w3.org/2000/svg">
<path d="M43.2758 6.78689C43.5099 7.77082 43.7304 8.73562 43.9371 9.68152C51.4563 44.1003 40.6536 53.5043 1.78315 49.6963C-0.875818 25.1094 3.33914 13.8539 15.6571 9.30866C21.1578 7.27896 28.2743 6.58735 37.116 6.64423C37.5258 6.64687 37.9393 6.65111 38.3564 6.6569C39.9423 6.67892 41.5819 6.72332 43.2758 6.78689Z" fill="#FFD600"/>
<path d="M39.2072 3.9198C34.7803 15.3819 28.0738 18.1903 8.66693 16.8434H5.35715C12.8205 4.15458 20.5728 0.735483 40.5612 1.01562L39.2072 3.9198Z" fill="#2DA719"/>
<path d="M40.5612 1.01562L39.2072 3.9198C34.7803 15.3819 28.0738 18.1903 8.66693 16.8434H5.35715M40.5612 1.01562C20.5728 0.735483 12.8205 4.15458 5.35715 16.8434M40.5612 1.01562V1.01562C39.4782 1.49077 38.5631 2.2669 37.7955 3.16667C32.9068 8.89767 24.9279 11.7371 9.18687 15.3654C7.84809 15.674 6.55432 16.1694 5.35715 16.8434V16.8434" stroke="black"/>
<path d="M1.57703 49.2975C25.2765 44.2585 34.8262 35.0436 43.3759 6.64102L44.3101 10.126C50.9422 45.5022 40.5909 53.418 1.60157 49.6226C1.41009 49.6226 1.38973 49.3373 1.57703 49.2975Z" fill="#F1B620"/>
<g filter="url(#filter0_d_21_31)">
<path d="M49.6577 19H33.5L28.25 40L26 49H43.6577C45.0343 49 46.2342 48.0631 46.5681 46.7276L52.5681 22.7276C53.0415 20.8342 51.6094 19 49.6577 19Z" fill="#2DA719"/>
<path d="M26 49H43.6577C45.0343 49 46.2342 48.0631 46.5681 46.7276L52.5681 22.7276C53.0415 20.8342 51.6094 19 49.6577 19H33.5L28.25 40L26 49ZM26 49V49C25.4066 50.5823 25.6137 53 27.3036 53H28.25H46H47.5896C48.9975 53 50.216 52.021 50.5192 50.6462L55.7266 27.0392C55.9576 25.9921 55.1605 25 54.0882 25V25" stroke="#2DA719"/>
</g>
<defs>
<filter id="filter0_d_21_31" x="21.1985" y="18.5" width="39.0684" height="43" filterUnits="userSpaceOnUse" color-interpolation-filters="sRGB">
<feFlood flood-opacity="0" result="BackgroundImageFix"/>
<feColorMatrix in="SourceAlpha" type="matrix" values="0 0 0 0 0 0 0 0 0 0 0 0 0 0 0 0 0 0 127 0" result="hardAlpha"/>
<feOffset dy="4"/>
<feGaussianBlur stdDeviation="2"/>
<feComposite in2="hardAlpha" operator="out"/>
<feColorMatrix type="matrix" values="0 0 0 0 0 0 0 0 0 0 0 0 0 0 0 0 0 0 0.25 0"/>
<feBlend mode="normal" in2="BackgroundImageFix" result="effect1_dropShadow_21_31"/>
<feBlend mode="normal" in="SourceGraphic" in2="effect1_dropShadow_21_31" result="shape"/>
</filter>
</defs>
</svg>
